<svg xmlns="http://www.w3.org/2000/svg" width="1500" height="1000" viewBox="0 0 1500 1000" font-family="Consolas,Menlo,monospace">
<rect width="1500" height="1000" fill="#ffffff"/>
<text x="30" y="40" font-size="26" font-weight="bold" fill="#111">GrooveS3 — 74HC595 x2 in cascata (16 LED step)</text>
<rect x="40" y="380" width="190" height="260" rx="8" fill="#dbe9ff" stroke="#333" stroke-width="2"/>
<text x="135" y="408" font-size="20" font-weight="bold" text-anchor="middle" fill="#111">ESP32-S3</text>
<text x="52" y="444" font-size="15" fill="#111" text-anchor="start">GPIO11 (MOSI)</text>
<circle cx="226" cy="440" r="4" fill="#111"/>
<text x="52" y="484" font-size="15" fill="#111" text-anchor="start">GPIO12 (SCK)</text>
<circle cx="226" cy="480" r="4" fill="#111"/>
<text x="52" y="524" font-size="15" fill="#111" text-anchor="start">GPIO9 (LATCH)</text>
<circle cx="226" cy="520" r="4" fill="#111"/>
<text x="52" y="564" font-size="15" fill="#111" text-anchor="start">3.3V</text>
<circle cx="226" cy="560" r="4" fill="#111"/>
<text x="52" y="604" font-size="15" fill="#111" text-anchor="start">GND</text>
<circle cx="226" cy="600" r="4" fill="#111"/>
<rect x="460" y="180" width="260" height="680" rx="8" fill="#ffe9d6" stroke="#333" stroke-width="2"/>
<text x="590" y="208" font-size="20" font-weight="bold" text-anchor="middle" fill="#111">74HC595 #1</text>
<circle cx="464" cy="250" r="4" fill="#111"/>
<text x="476" y="254" font-size="15" fill="#111" text-anchor="start">14 SER</text>
<circle cx="464" cy="300" r="4" fill="#111"/>
<text x="476" y="304" font-size="15" fill="#111" text-anchor="start">11 SRCLK</text>
<circle cx="464" cy="350" r="4" fill="#111"/>
<text x="476" y="354" font-size="15" fill="#111" text-anchor="start">12 RCLK</text>
<circle cx="464" cy="400" r="4" fill="#111"/>
<text x="476" y="404" font-size="15" fill="#111" text-anchor="start">13 OE</text>
<circle cx="464" cy="450" r="4" fill="#111"/>
<text x="476" y="454" font-size="15" fill="#111" text-anchor="start">10 MR</text>
<circle cx="464" cy="500" r="4" fill="#111"/>
<text x="476" y="504" font-size="15" fill="#111" text-anchor="start">16 VCC</text>
<circle cx="464" cy="550" r="4" fill="#111"/>
<text x="476" y="554" font-size="15" fill="#111" text-anchor="start">8 GND</text>
<circle cx="716" cy="220" r="4" fill="#111"/>
<text x="704" y="224" font-size="15" fill="#111" text-anchor="end">15 Q0</text>
<circle cx="716" cy="260" r="4" fill="#111"/>
<text x="704" y="264" font-size="15" fill="#111" text-anchor="end">1 Q1</text>
<circle cx="716" cy="300" r="4" fill="#111"/>
<text x="704" y="304" font-size="15" fill="#111" text-anchor="end">2 Q2</text>
<circle cx="716" cy="340" r="4" fill="#111"/>
<text x="704" y="344" font-size="15" fill="#111" text-anchor="end">3 Q3</text>
<circle cx="716" cy="380" r="4" fill="#111"/>
<text x="704" y="384" font-size="15" fill="#111" text-anchor="end">4 Q4</text>
<circle cx="716" cy="420" r="4" fill="#111"/>
<text x="704" y="424" font-size="15" fill="#111" text-anchor="end">5 Q5</text>
<circle cx="716" cy="460" r="4" fill="#111"/>
<text x="704" y="464" font-size="15" fill="#111" text-anchor="end">6 Q6</text>
<circle cx="716" cy="500" r="4" fill="#111"/>
<text x="704" y="504" font-size="15" fill="#111" text-anchor="end">7 Q7</text>
<circle cx="716" cy="820" r="4" fill="#111"/>
<text x="704" y="824" font-size="15" fill="#111" text-anchor="end">9 Q7'</text>
<rect x="980" y="180" width="260" height="680" rx="8" fill="#ffe9d6" stroke="#333" stroke-width="2"/>
<text x="1110" y="208" font-size="20" font-weight="bold" text-anchor="middle" fill="#111">74HC595 #2</text>
<circle cx="984" cy="250" r="4" fill="#111"/>
<text x="996" y="254" font-size="15" fill="#111" text-anchor="start">14 SER</text>
<circle cx="984" cy="300" r="4" fill="#111"/>
<text x="996" y="304" font-size="15" fill="#111" text-anchor="start">11 SRCLK</text>
<circle cx="984" cy="350" r="4" fill="#111"/>
<text x="996" y="354" font-size="15" fill="#111" text-anchor="start">12 RCLK</text>
<circle cx="984" cy="400" r="4" fill="#111"/>
<text x="996" y="404" font-size="15" fill="#111" text-anchor="start">13 OE</text>
<circle cx="984" cy="450" r="4" fill="#111"/>
<text x="996" y="454" font-size="15" fill="#111" text-anchor="start">10 MR</text>
<circle cx="984" cy="500" r="4" fill="#111"/>
<text x="996" y="504" font-size="15" fill="#111" text-anchor="start">16 VCC</text>
<circle cx="984" cy="550" r="4" fill="#111"/>
<text x="996" y="554" font-size="15" fill="#111" text-anchor="start">8 GND</text>
<circle cx="1236" cy="220" r="4" fill="#111"/>
<text x="1224" y="224" font-size="15" fill="#111" text-anchor="end">15 Q0</text>
<circle cx="1236" cy="260" r="4" fill="#111"/>
<text x="1224" y="264" font-size="15" fill="#111" text-anchor="end">1 Q1</text>
<circle cx="1236" cy="300" r="4" fill="#111"/>
<text x="1224" y="304" font-size="15" fill="#111" text-anchor="end">2 Q2</text>
<circle cx="1236" cy="340" r="4" fill="#111"/>
<text x="1224" y="344" font-size="15" fill="#111" text-anchor="end">3 Q3</text>
<circle cx="1236" cy="380" r="4" fill="#111"/>
<text x="1224" y="384" font-size="15" fill="#111" text-anchor="end">4 Q4</text>
<circle cx="1236" cy="420" r="4" fill="#111"/>
<text x="1224" y="424" font-size="15" fill="#111" text-anchor="end">5 Q5</text>
<circle cx="1236" cy="460" r="4" fill="#111"/>
<text x="1224" y="464" font-size="15" fill="#111" text-anchor="end">6 Q6</text>
<circle cx="1236" cy="500" r="4" fill="#111"/>
<text x="1224" y="504" font-size="15" fill="#111" text-anchor="end">7 Q7</text>
<path d="M 728 220 L 750 220 L 750 220" fill="none" stroke="#2e7d32" stroke-width="3" />
<rect x="754" y="212" width="24" height="10" fill="#ccc" stroke="#333" stroke-width="1.5"/>
<text x="766" y="206" font-size="11" text-anchor="middle" fill="#555">R</text>
<polygon points="804,212 804,228 820,220" fill="#ffd54f" stroke="#c78d00" stroke-width="1.5"/>
<line x1="820" y1="212" x2="820" y2="228" stroke="#c78d00" stroke-width="1.5"/>
<text x="834" y="224" font-size="13" fill="#111">STEP 0</text>
<line x1="820" y1="220" x2="820" y2="246" stroke="#333" stroke-width="2"/>
<text x="820" y="260" font-size="11" text-anchor="middle" fill="#333">GND</text>
<path d="M 728 260 L 750 260 L 750 260" fill="none" stroke="#2e7d32" stroke-width="3" />
<rect x="754" y="252" width="24" height="10" fill="#ccc" stroke="#333" stroke-width="1.5"/>
<text x="766" y="246" font-size="11" text-anchor="middle" fill="#555">R</text>
<polygon points="804,252 804,268 820,260" fill="#ffd54f" stroke="#c78d00" stroke-width="1.5"/>
<line x1="820" y1="252" x2="820" y2="268" stroke="#c78d00" stroke-width="1.5"/>
<text x="834" y="264" font-size="13" fill="#111">STEP 1</text>
<line x1="820" y1="260" x2="820" y2="286" stroke="#333" stroke-width="2"/>
<text x="820" y="300" font-size="11" text-anchor="middle" fill="#333">GND</text>
<path d="M 728 300 L 750 300 L 750 300" fill="none" stroke="#2e7d32" stroke-width="3" />
<rect x="754" y="292" width="24" height="10" fill="#ccc" stroke="#333" stroke-width="1.5"/>
<text x="766" y="286" font-size="11" text-anchor="middle" fill="#555">R</text>
<polygon points="804,292 804,308 820,300" fill="#ffd54f" stroke="#c78d00" stroke-width="1.5"/>
<line x1="820" y1="292" x2="820" y2="308" stroke="#c78d00" stroke-width="1.5"/>
<text x="834" y="304" font-size="13" fill="#111">STEP 2</text>
<line x1="820" y1="300" x2="820" y2="326" stroke="#333" stroke-width="2"/>
<text x="820" y="340" font-size="11" text-anchor="middle" fill="#333">GND</text>
<path d="M 728 340 L 750 340 L 750 340" fill="none" stroke="#2e7d32" stroke-width="3" />
<rect x="754" y="332" width="24" height="10" fill="#ccc" stroke="#333" stroke-width="1.5"/>
<text x="766" y="326" font-size="11" text-anchor="middle" fill="#555">R</text>
<polygon points="804,332 804,348 820,340" fill="#ffd54f" stroke="#c78d00" stroke-width="1.5"/>
<line x1="820" y1="332" x2="820" y2="348" stroke="#c78d00" stroke-width="1.5"/>
<text x="834" y="344" font-size="13" fill="#111">STEP 3</text>
<line x1="820" y1="340" x2="820" y2="366" stroke="#333" stroke-width="2"/>
<text x="820" y="380" font-size="11" text-anchor="middle" fill="#333">GND</text>
<path d="M 728 380 L 750 380 L 750 380" fill="none" stroke="#2e7d32" stroke-width="3" />
<rect x="754" y="372" width="24" height="10" fill="#ccc" stroke="#333" stroke-width="1.5"/>
<text x="766" y="366" font-size="11" text-anchor="middle" fill="#555">R</text>
<polygon points="804,372 804,388 820,380" fill="#ffd54f" stroke="#c78d00" stroke-width="1.5"/>
<line x1="820" y1="372" x2="820" y2="388" stroke="#c78d00" stroke-width="1.5"/>
<text x="834" y="384" font-size="13" fill="#111">STEP 4</text>
<line x1="820" y1="380" x2="820" y2="406" stroke="#333" stroke-width="2"/>
<text x="820" y="420" font-size="11" text-anchor="middle" fill="#333">GND</text>
<path d="M 728 420 L 750 420 L 750 420" fill="none" stroke="#2e7d32" stroke-width="3" />
<rect x="754" y="412" width="24" height="10" fill="#ccc" stroke="#333" stroke-width="1.5"/>
<text x="766" y="406" font-size="11" text-anchor="middle" fill="#555">R</text>
<polygon points="804,412 804,428 820,420" fill="#ffd54f" stroke="#c78d00" stroke-width="1.5"/>
<line x1="820" y1="412" x2="820" y2="428" stroke="#c78d00" stroke-width="1.5"/>
<text x="834" y="424" font-size="13" fill="#111">STEP 5</text>
<line x1="820" y1="420" x2="820" y2="446" stroke="#333" stroke-width="2"/>
<text x="820" y="460" font-size="11" text-anchor="middle" fill="#333">GND</text>
<path d="M 728 460 L 750 460 L 750 460" fill="none" stroke="#2e7d32" stroke-width="3" />
<rect x="754" y="452" width="24" height="10" fill="#ccc" stroke="#333" stroke-width="1.5"/>
<text x="766" y="446" font-size="11" text-anchor="middle" fill="#555">R</text>
<polygon points="804,452 804,468 820,460" fill="#ffd54f" stroke="#c78d00" stroke-width="1.5"/>
<line x1="820" y1="452" x2="820" y2="468" stroke="#c78d00" stroke-width="1.5"/>
<text x="834" y="464" font-size="13" fill="#111">STEP 6</text>
<line x1="820" y1="460" x2="820" y2="486" stroke="#333" stroke-width="2"/>
<text x="820" y="500" font-size="11" text-anchor="middle" fill="#333">GND</text>
<path d="M 728 500 L 750 500 L 750 500" fill="none" stroke="#2e7d32" stroke-width="3" />
<rect x="754" y="492" width="24" height="10" fill="#ccc" stroke="#333" stroke-width="1.5"/>
<text x="766" y="486" font-size="11" text-anchor="middle" fill="#555">R</text>
<polygon points="804,492 804,508 820,500" fill="#ffd54f" stroke="#c78d00" stroke-width="1.5"/>
<line x1="820" y1="492" x2="820" y2="508" stroke="#c78d00" stroke-width="1.5"/>
<text x="834" y="504" font-size="13" fill="#111">STEP 7</text>
<line x1="820" y1="500" x2="820" y2="526" stroke="#333" stroke-width="2"/>
<text x="820" y="540" font-size="11" text-anchor="middle" fill="#333">GND</text>
<line x1="1244" y1="220" x2="1270" y2="220" stroke="#2e7d32" stroke-width="3"/>
<rect x="1274" y="212" width="24" height="10" fill="#ccc" stroke="#333" stroke-width="1.5"/>
<text x="1286" y="206" font-size="11" text-anchor="middle" fill="#555">R</text>
<polygon points="1324,212 1324,228 1340,220" fill="#ffd54f" stroke="#c78d00" stroke-width="1.5"/>
<line x1="1340" y1="212" x2="1340" y2="228" stroke="#c78d00" stroke-width="1.5"/>
<text x="1354" y="224" font-size="13" fill="#111">STEP 8</text>
<line x1="1340" y1="220" x2="1340" y2="246" stroke="#333" stroke-width="2"/>
<text x="1340" y="260" font-size="11" text-anchor="middle" fill="#333">GND</text>
<line x1="1244" y1="260" x2="1270" y2="260" stroke="#2e7d32" stroke-width="3"/>
<rect x="1274" y="252" width="24" height="10" fill="#ccc" stroke="#333" stroke-width="1.5"/>
<text x="1286" y="246" font-size="11" text-anchor="middle" fill="#555">R</text>
<polygon points="1324,252 1324,268 1340,260" fill="#ffd54f" stroke="#c78d00" stroke-width="1.5"/>
<line x1="1340" y1="252" x2="1340" y2="268" stroke="#c78d00" stroke-width="1.5"/>
<text x="1354" y="264" font-size="13" fill="#111">STEP 9</text>
<line x1="1340" y1="260" x2="1340" y2="286" stroke="#333" stroke-width="2"/>
<text x="1340" y="300" font-size="11" text-anchor="middle" fill="#333">GND</text>
<line x1="1244" y1="300" x2="1270" y2="300" stroke="#2e7d32" stroke-width="3"/>
<rect x="1274" y="292" width="24" height="10" fill="#ccc" stroke="#333" stroke-width="1.5"/>
<text x="1286" y="286" font-size="11" text-anchor="middle" fill="#555">R</text>
<polygon points="1324,292 1324,308 1340,300" fill="#ffd54f" stroke="#c78d00" stroke-width="1.5"/>
<line x1="1340" y1="292" x2="1340" y2="308" stroke="#c78d00" stroke-width="1.5"/>
<text x="1354" y="304" font-size="13" fill="#111">STEP 10</text>
<line x1="1340" y1="300" x2="1340" y2="326" stroke="#333" stroke-width="2"/>
<text x="1340" y="340" font-size="11" text-anchor="middle" fill="#333">GND</text>
<line x1="1244" y1="340" x2="1270" y2="340" stroke="#2e7d32" stroke-width="3"/>
<rect x="1274" y="332" width="24" height="10" fill="#ccc" stroke="#333" stroke-width="1.5"/>
<text x="1286" y="326" font-size="11" text-anchor="middle" fill="#555">R</text>
<polygon points="1324,332 1324,348 1340,340" fill="#ffd54f" stroke="#c78d00" stroke-width="1.5"/>
<line x1="1340" y1="332" x2="1340" y2="348" stroke="#c78d00" stroke-width="1.5"/>
<text x="1354" y="344" font-size="13" fill="#111">STEP 11</text>
<line x1="1340" y1="340" x2="1340" y2="366" stroke="#333" stroke-width="2"/>
<text x="1340" y="380" font-size="11" text-anchor="middle" fill="#333">GND</text>
<line x1="1244" y1="380" x2="1270" y2="380" stroke="#2e7d32" stroke-width="3"/>
<rect x="1274" y="372" width="24" height="10" fill="#ccc" stroke="#333" stroke-width="1.5"/>
<text x="1286" y="366" font-size="11" text-anchor="middle" fill="#555">R</text>
<polygon points="1324,372 1324,388 1340,380" fill="#ffd54f" stroke="#c78d00" stroke-width="1.5"/>
<line x1="1340" y1="372" x2="1340" y2="388" stroke="#c78d00" stroke-width="1.5"/>
<text x="1354" y="384" font-size="13" fill="#111">STEP 12</text>
<line x1="1340" y1="380" x2="1340" y2="406" stroke="#333" stroke-width="2"/>
<text x="1340" y="420" font-size="11" text-anchor="middle" fill="#333">GND</text>
<line x1="1244" y1="420" x2="1270" y2="420" stroke="#2e7d32" stroke-width="3"/>
<rect x="1274" y="412" width="24" height="10" fill="#ccc" stroke="#333" stroke-width="1.5"/>
<text x="1286" y="406" font-size="11" text-anchor="middle" fill="#555">R</text>
<polygon points="1324,412 1324,428 1340,420" fill="#ffd54f" stroke="#c78d00" stroke-width="1.5"/>
<line x1="1340" y1="412" x2="1340" y2="428" stroke="#c78d00" stroke-width="1.5"/>
<text x="1354" y="424" font-size="13" fill="#111">STEP 13</text>
<line x1="1340" y1="420" x2="1340" y2="446" stroke="#333" stroke-width="2"/>
<text x="1340" y="460" font-size="11" text-anchor="middle" fill="#333">GND</text>
<line x1="1244" y1="460" x2="1270" y2="460" stroke="#2e7d32" stroke-width="3"/>
<rect x="1274" y="452" width="24" height="10" fill="#ccc" stroke="#333" stroke-width="1.5"/>
<text x="1286" y="446" font-size="11" text-anchor="middle" fill="#555">R</text>
<polygon points="1324,452 1324,468 1340,460" fill="#ffd54f" stroke="#c78d00" stroke-width="1.5"/>
<line x1="1340" y1="452" x2="1340" y2="468" stroke="#c78d00" stroke-width="1.5"/>
<text x="1354" y="464" font-size="13" fill="#111">STEP 14</text>
<line x1="1340" y1="460" x2="1340" y2="486" stroke="#333" stroke-width="2"/>
<text x="1340" y="500" font-size="11" text-anchor="middle" fill="#333">GND</text>
<line x1="1244" y1="500" x2="1270" y2="500" stroke="#2e7d32" stroke-width="3"/>
<rect x="1274" y="492" width="24" height="10" fill="#ccc" stroke="#333" stroke-width="1.5"/>
<text x="1286" y="486" font-size="11" text-anchor="middle" fill="#555">R</text>
<polygon points="1324,492 1324,508 1340,500" fill="#ffd54f" stroke="#c78d00" stroke-width="1.5"/>
<line x1="1340" y1="492" x2="1340" y2="508" stroke="#c78d00" stroke-width="1.5"/>
<text x="1354" y="504" font-size="13" fill="#111">STEP 15</text>
<line x1="1340" y1="500" x2="1340" y2="526" stroke="#333" stroke-width="2"/>
<text x="1340" y="540" font-size="11" text-anchor="middle" fill="#333">GND</text>
<line x1="230" y1="440" x2="430" y2="440" stroke="#1565c0" stroke-width="3"/>
<line x1="430" y1="440" x2="430" y2="250" stroke="#1565c0" stroke-width="3"/>
<line x1="430" y1="250" x2="460" y2="250" stroke="#1565c0" stroke-width="3"/>
<text x="305" y="432" font-size="13" fill="#1565c0" font-weight="bold">DATA (MOSI)</text>
<line x1="230" y1="480" x2="410" y2="480" stroke="#2e7d32" stroke-width="3"/>
<line x1="410" y1="480" x2="410" y2="300" stroke="#2e7d32" stroke-width="3"/>
<line x1="410" y1="300" x2="460" y2="300" stroke="#2e7d32" stroke-width="3"/>
<line x1="410" y1="480" x2="410" y2="140" stroke="#2e7d32" stroke-width="3"/>
<line x1="410" y1="140" x2="950" y2="140" stroke="#2e7d32" stroke-width="3"/>
<line x1="950" y1="140" x2="950" y2="300" stroke="#2e7d32" stroke-width="3"/>
<line x1="950" y1="300" x2="980" y2="300" stroke="#2e7d32" stroke-width="3"/>
<text x="240" y="472" font-size="13" fill="#2e7d32" font-weight="bold">SCK (comune)</text>
<line x1="230" y1="520" x2="390" y2="520" stroke="#e65100" stroke-width="3"/>
<line x1="390" y1="520" x2="390" y2="350" stroke="#e65100" stroke-width="3"/>
<line x1="390" y1="350" x2="460" y2="350" stroke="#e65100" stroke-width="3"/>
<line x1="390" y1="520" x2="390" y2="160" stroke="#e65100" stroke-width="3"/>
<line x1="390" y1="160" x2="930" y2="160" stroke="#e65100" stroke-width="3"/>
<line x1="930" y1="160" x2="930" y2="350" stroke="#e65100" stroke-width="3"/>
<line x1="930" y1="350" x2="980" y2="350" stroke="#e65100" stroke-width="3"/>
<text x="240" y="538" font-size="13" fill="#e65100" font-weight="bold">LATCH (comune)</text>
<line x1="720" y1="820" x2="966" y2="820" stroke="#1565c0" stroke-width="3"/>
<line x1="966" y1="820" x2="966" y2="250" stroke="#1565c0" stroke-width="3"/>
<line x1="966" y1="250" x2="980" y2="250" stroke="#1565c0" stroke-width="3"/>
<text x="728" y="812" font-size="13" fill="#1565c0" font-weight="bold">Q7' → SER (cascata)</text>
<line x1="460" y1="400" x2="444" y2="400" stroke="#000" stroke-width="3"/>
<text x="440" y="404" font-size="12" fill="#000" text-anchor="end">GND</text>
<line x1="460" y1="450" x2="444" y2="450" stroke="#c62828" stroke-width="3"/>
<text x="440" y="454" font-size="12" fill="#c62828" text-anchor="end">3.3V</text>
<line x1="460" y1="500" x2="444" y2="500" stroke="#c62828" stroke-width="3"/>
<text x="440" y="504" font-size="12" fill="#c62828" text-anchor="end">3.3V</text>
<line x1="460" y1="550" x2="444" y2="550" stroke="#000" stroke-width="3"/>
<text x="440" y="554" font-size="12" fill="#000" text-anchor="end">GND</text>
<line x1="980" y1="400" x2="964" y2="400" stroke="#000" stroke-width="3"/>
<text x="960" y="404" font-size="12" fill="#000" text-anchor="end">GND</text>
<line x1="980" y1="450" x2="964" y2="450" stroke="#c62828" stroke-width="3"/>
<text x="960" y="454" font-size="12" fill="#c62828" text-anchor="end">3.3V</text>
<line x1="980" y1="500" x2="964" y2="500" stroke="#c62828" stroke-width="3"/>
<text x="960" y="504" font-size="12" fill="#c62828" text-anchor="end">3.3V</text>
<line x1="980" y1="550" x2="964" y2="550" stroke="#000" stroke-width="3"/>
<text x="960" y="554" font-size="12" fill="#000" text-anchor="end">GND</text>
<rect x="40" y="730" width="340" height="220" rx="8" fill="#ffffff" stroke="#999" stroke-width="2"/>
<text x="210" y="758" font-size="20" font-weight="bold" text-anchor="middle" fill="#111">Legenda</text>
<line x1="60" y1="780" x2="100" y2="780" stroke="#1565c0" stroke-width="3"/>
<text x="110" y="784" font-size="15" fill="#111" text-anchor="start">Dati seriali (SER / Q7' cascata)</text>
<line x1="60" y1="812" x2="100" y2="812" stroke="#2e7d32" stroke-width="3"/>
<text x="110" y="816" font-size="15" fill="#111" text-anchor="start">Clock (SRCLK / SCK)</text>
<line x1="60" y1="844" x2="100" y2="844" stroke="#e65100" stroke-width="3"/>
<text x="110" y="848" font-size="15" fill="#111" text-anchor="start">Latch (RCLK)</text>
<line x1="60" y1="876" x2="100" y2="876" stroke="#c62828" stroke-width="3"/>
<text x="110" y="880" font-size="15" fill="#111" text-anchor="start">Alimentazione 3.3V</text>
<line x1="60" y1="908" x2="100" y2="908" stroke="#000000" stroke-width="3"/>
<text x="110" y="912" font-size="15" fill="#111" text-anchor="start">GND</text>
<text x="50" y="930" font-size="13" fill="#333">OE(13)→GND sempre abilitato · MR(10)→3.3V mai reset</text>
</svg>